<svg xmlns="http://www.w3.org/2000/svg" viewBox="0 0 1400 360" role="img" aria-labelledby="title">
<title id="title">TISSUE logo</title>
<g transform="translate(38 42) scale(0.56)">
  <defs><clipPath id="dialClipL"><circle cx="256" cy="238" r="176"/></clipPath></defs>
  <circle cx="256" cy="238" r="188" fill="#F2F0EB" stroke="#303536" stroke-width="24"/>
  <g clip-path="url(#dialClipL)"><rect x="80" y="238" width="352" height="176" fill="#303536"/></g>
  <path d="M94 238 H418" stroke="#303536" stroke-width="12"/>
  <path d="M256 238 L345 112" stroke="#D96B32" stroke-width="18" stroke-linecap="round"/>
  <circle cx="256" cy="238" r="28" fill="#F2F0EB" stroke="#303536" stroke-width="16"/>
</g>
<path d="M380.683,107.048 L474.990,107.048 L474.990,129.229 L441.084,129.229 L441.084,220.782 L414.661,220.782 L414.661,129.229 L380.683,129.229 L380.683,107.048 Z M524.618,107.048 L551.065,107.048 L551.065,220.782 L524.618,220.782 L524.618,107.048 Z M659.729,110.631 L659.729,134.713 Q651.344,130.521 643.300,128.400 Q635.281,126.255 628.114,126.255 Q618.681,126.255 614.147,129.156 Q609.614,132.032 609.614,138.126 Q609.614,142.708 612.661,145.268 Q615.707,147.803 623.776,149.631 L634.964,152.141 Q652.124,155.968 659.266,163.744 Q666.432,171.495 666.432,185.828 Q666.432,204.621 656.414,213.811 Q646.396,223.000 625.750,223.000 Q616.000,223.000 606.201,220.928 Q596.427,218.881 586.604,214.834 L586.604,190.094 Q596.427,195.870 605.567,198.820 Q614.708,201.745 623.239,201.745 Q631.844,201.745 636.451,198.552 Q641.058,195.334 641.058,189.387 Q641.058,184.073 637.938,181.172 Q634.818,178.272 625.458,175.980 L615.244,173.470 Q599.937,169.813 592.819,161.818 Q585.702,153.823 585.702,140.271 Q585.702,123.281 595.598,114.141 Q605.494,105.000 623.922,105.000 Q632.380,105.000 641.277,106.414 Q650.198,107.828 659.729,110.631 Z M777.900,110.631 L777.900,134.713 Q769.515,130.521 761.471,128.400 Q753.451,126.255 746.285,126.255 Q736.852,126.255 732.318,129.156 Q727.784,132.032 727.784,138.126 Q727.784,142.708 730.831,145.268 Q733.878,147.803 741.946,149.631 L753.134,152.141 Q770.295,155.968 777.436,163.744 Q784.603,171.495 784.603,185.828 Q784.603,204.621 774.585,213.811 Q764.566,223.000 743.921,223.000 Q734.171,223.000 724.372,220.928 Q714.597,218.881 704.774,214.834 L704.774,190.094 Q714.597,195.870 723.738,198.820 Q732.879,201.745 741.410,201.745 Q750.014,201.745 754.621,198.552 Q759.228,195.334 759.228,189.387 Q759.228,184.073 756.108,181.172 Q752.988,178.272 743.628,175.980 L733.415,173.470 Q718.107,169.813 710.990,161.818 Q703.872,153.823 703.872,140.271 Q703.872,123.281 713.769,114.141 Q723.665,105.000 742.093,105.000 Q750.551,105.000 759.448,106.414 Q768.369,107.828 777.900,110.631 Z M824.846,107.048 L851.293,107.048 L851.293,175.225 Q851.293,189.314 855.437,195.383 Q859.581,201.428 868.965,201.428 Q878.398,201.428 882.542,195.383 Q886.710,189.314 886.710,175.225 L886.710,107.048 L913.133,107.048 L913.133,175.225 Q913.133,199.380 902.188,211.202 Q891.268,223.000 868.965,223.000 Q846.637,223.000 835.742,211.202 Q824.846,199.380 824.846,175.225 L824.846,107.048 Z M950.573,107.048 L1021.797,107.048 L1021.797,129.229 L977.020,129.229 L977.020,150.386 L1019.140,150.386 L1019.140,172.568 L977.020,172.568 L977.020,198.625 L1023.333,198.625 L1023.333,220.782 L950.573,220.782 L950.573,107.048 Z" fill="#F2F0EB"/>
<path d="M380 264 H1030" stroke="#F2F0EB" stroke-width="6"/>
<path d="M1030 264 H1110" stroke="#D96B32" stroke-width="12"/>
</svg>